<svg width="24" height="24" viewBox="0 0 24 24" fill="none" xmlns="http://www.w3.org/2000/svg">
<path d="M15.0029 3.5127C16.0555 3.88503 17.0172 4.44864 17.8486 5.16016L20.0293 3.90234L23.0293 9.09863L20.8486 10.3564C20.9469 10.8892 21.001 11.4379 21.001 11.999C21.001 12.5609 20.9462 13.1102 20.8477 13.6436L23.0283 14.9023L20.0283 20.0977L17.8477 18.8379C17.0162 19.5493 16.0545 20.1121 15.002 20.4844V23H9.00195V20.4844C7.94923 20.1123 6.98686 19.5503 6.15527 18.8389L3.97656 20.0977L0.976562 14.9014L3.1543 13.6436C3.05578 13.1102 3.00098 12.5609 3.00098 11.999C3.00098 11.4372 3.05483 10.8878 3.15332 10.3545L0.976562 9.09766L3.97656 3.90137L6.1543 5.1582C6.98629 4.44644 7.94959 3.88385 9.00293 3.51172V1H15.0029V3.5127ZM11.0029 4.92676L9.66895 5.39746C8.85169 5.68621 8.10229 6.12323 7.4541 6.67773L6.37988 7.59766L5.1543 6.89062L4.70801 6.63281L3.70898 8.36523L4.15332 8.62207L5.37695 9.3291L5.12012 10.7178C5.04258 11.1376 5.00098 11.5654 5.00098 11.999C5.00098 12.4305 5.0431 12.858 5.12109 13.2803L5.37793 14.6689L4.1543 15.375L3.70801 15.6318L4.70801 17.3643L5.1543 17.1074L6.37988 16.3994L7.45508 17.3193C8.10286 17.8735 8.85194 18.3098 9.66895 18.5986L11.002 19.0703V21H13.002V19.0703L14.335 18.5986C15.1507 18.3101 15.8993 17.8733 16.5479 17.3184L17.623 16.3984L18.8477 17.1064L19.2959 17.3652L20.2949 15.6338L19.8477 15.376L18.624 14.6689L18.8809 13.2803C18.9589 12.858 19.001 12.4305 19.001 11.999C19.001 11.5668 18.9593 11.1399 18.8818 10.7197L18.626 9.33008L19.8496 8.62402L20.2959 8.36523L19.2959 6.63281L18.8477 6.89258L17.623 7.59961L16.5479 6.67969C15.8988 6.12424 15.1509 5.68673 14.3359 5.39844L13.0029 4.92676V3H11.0029V4.92676ZM11.999 7.99902C14.2082 7.99902 15.999 9.78988 15.999 11.999C15.999 14.2082 14.2082 15.999 11.999 15.999C9.78988 15.999 7.99902 14.2082 7.99902 11.999C7.99902 9.78988 9.78988 7.99902 11.999 7.99902ZM11.999 9.99902C10.8945 9.99902 9.99902 10.8945 9.99902 11.999C9.99902 13.1036 10.8945 13.999 11.999 13.999C13.1036 13.999 13.999 13.1036 13.999 11.999C13.999 10.8945 13.1036 9.99902 11.999 9.99902Z" fill="#003D29"/>
</svg>
